<?xml version="1.0" encoding="utf-8"?>
<!-- Generator: Adobe Illustrator 27.0.0, SVG Export Plug-In . SVG Version: 6.00 Build 0)  -->
<svg version="1.1" id="Layer_1" xmlns="http://www.w3.org/2000/svg" xmlns:xlink="http://www.w3.org/1999/xlink" x="0px" y="0px"
	 viewBox="0 0 96.9 32" style="enable-background:new 0 0 96.9 32;" xml:space="preserve">
<style type="text/css">
	.st0{fill:#FFFFFF;}
	.st1{fill:#CE2035;}
	.st2{clip-path:url(#SVGID_00000169515953069354540650000001716722070384018327_);fill:#E3253F;}
	.st3{clip-path:url(#SVGID_00000169515953069354540650000001716722070384018327_);fill:#E1253E;}
	.st4{clip-path:url(#SVGID_00000169515953069354540650000001716722070384018327_);fill:#DF253D;}
	.st5{clip-path:url(#SVGID_00000169515953069354540650000001716722070384018327_);fill:#DE253D;}
	.st6{clip-path:url(#SVGID_00000169515953069354540650000001716722070384018327_);fill:#DC243C;}
	.st7{clip-path:url(#SVGID_00000169515953069354540650000001716722070384018327_);fill:#DB243C;}
	.st8{clip-path:url(#SVGID_00000169515953069354540650000001716722070384018327_);fill:#DA243B;}
	.st9{clip-path:url(#SVGID_00000169515953069354540650000001716722070384018327_);fill:#D8243B;}
	.st10{clip-path:url(#SVGID_00000169515953069354540650000001716722070384018327_);fill:#D7243B;}
	.st11{clip-path:url(#SVGID_00000169515953069354540650000001716722070384018327_);fill:#D6243A;}
	.st12{clip-path:url(#SVGID_00000169515953069354540650000001716722070384018327_);fill:#D5243A;}
	.st13{clip-path:url(#SVGID_00000169515953069354540650000001716722070384018327_);fill:#D32439;}
	.st14{clip-path:url(#SVGID_00000169515953069354540650000001716722070384018327_);fill:#D22339;}
	.st15{clip-path:url(#SVGID_00000169515953069354540650000001716722070384018327_);fill:#D12339;}
	.st16{clip-path:url(#SVGID_00000169515953069354540650000001716722070384018327_);fill:#D02338;}
	.st17{clip-path:url(#SVGID_00000169515953069354540650000001716722070384018327_);fill:#CF2338;}
	.st18{clip-path:url(#SVGID_00000169515953069354540650000001716722070384018327_);fill:#CE2337;}
	.st19{clip-path:url(#SVGID_00000169515953069354540650000001716722070384018327_);fill:#CD2337;}
	.st20{clip-path:url(#SVGID_00000169515953069354540650000001716722070384018327_);fill:#CB2336;}
	.st21{clip-path:url(#SVGID_00000169515953069354540650000001716722070384018327_);fill:#CA2336;}
	.st22{clip-path:url(#SVGID_00000169515953069354540650000001716722070384018327_);fill:#C92236;}
	.st23{clip-path:url(#SVGID_00000169515953069354540650000001716722070384018327_);fill:#C82235;}
	.st24{clip-path:url(#SVGID_00000169515953069354540650000001716722070384018327_);fill:#C72235;}
	.st25{clip-path:url(#SVGID_00000169515953069354540650000001716722070384018327_);fill:#C62234;}
	.st26{clip-path:url(#SVGID_00000169515953069354540650000001716722070384018327_);fill:#C42234;}
	.st27{clip-path:url(#SVGID_00000169515953069354540650000001716722070384018327_);fill:#C32234;}
	.st28{clip-path:url(#SVGID_00000169515953069354540650000001716722070384018327_);fill:#C22233;}
	.st29{clip-path:url(#SVGID_00000169515953069354540650000001716722070384018327_);fill:#C12233;}
	.st30{clip-path:url(#SVGID_00000169515953069354540650000001716722070384018327_);fill:#C02232;}
	.st31{clip-path:url(#SVGID_00000169515953069354540650000001716722070384018327_);fill:#BF2132;}
	.st32{clip-path:url(#SVGID_00000169515953069354540650000001716722070384018327_);fill:#BE2132;}
	.st33{clip-path:url(#SVGID_00000169515953069354540650000001716722070384018327_);fill:#BC2131;}
	.st34{clip-path:url(#SVGID_00000169515953069354540650000001716722070384018327_);fill:#BB2131;}
	.st35{clip-path:url(#SVGID_00000169515953069354540650000001716722070384018327_);fill:#BA2130;}
	.st36{clip-path:url(#SVGID_00000169515953069354540650000001716722070384018327_);fill:#B92130;}
	.st37{clip-path:url(#SVGID_00000169515953069354540650000001716722070384018327_);fill:#B82130;}
	.st38{clip-path:url(#SVGID_00000169515953069354540650000001716722070384018327_);fill:#B7212F;}
	.st39{clip-path:url(#SVGID_00000169515953069354540650000001716722070384018327_);fill:#B6212F;}
	.st40{clip-path:url(#SVGID_00000169515953069354540650000001716722070384018327_);fill:#B5202E;}
	.st41{clip-path:url(#SVGID_00000169515953069354540650000001716722070384018327_);fill:#B4202E;}
	.st42{clip-path:url(#SVGID_00000169515953069354540650000001716722070384018327_);fill:#B3202E;}
	.st43{clip-path:url(#SVGID_00000169515953069354540650000001716722070384018327_);fill:#B2202D;}
	.st44{clip-path:url(#SVGID_00000169515953069354540650000001716722070384018327_);fill:#B0202D;}
	.st45{clip-path:url(#SVGID_00000169515953069354540650000001716722070384018327_);fill:#AF202C;}
	.st46{clip-path:url(#SVGID_00000169515953069354540650000001716722070384018327_);fill:#AE202C;}
	.st47{clip-path:url(#SVGID_00000169515953069354540650000001716722070384018327_);fill:#AD1F2C;}
	.st48{clip-path:url(#SVGID_00000169515953069354540650000001716722070384018327_);fill:#AC1F2B;}
	.st49{clip-path:url(#SVGID_00000169515953069354540650000001716722070384018327_);fill:#AB1F2B;}
	.st50{clip-path:url(#SVGID_00000169515953069354540650000001716722070384018327_);fill:#AA1F2B;}
	.st51{clip-path:url(#SVGID_00000169515953069354540650000001716722070384018327_);fill:#A91F2A;}
	.st52{clip-path:url(#SVGID_00000169515953069354540650000001716722070384018327_);fill:#A81F2A;}
	.st53{clip-path:url(#SVGID_00000169515953069354540650000001716722070384018327_);fill:#A71E29;}
	.st54{clip-path:url(#SVGID_00000169515953069354540650000001716722070384018327_);fill:#A61E29;}
	.st55{clip-path:url(#SVGID_00000169515953069354540650000001716722070384018327_);fill:#A51E29;}
	.st56{clip-path:url(#SVGID_00000169515953069354540650000001716722070384018327_);fill:#A41E28;}
	.st57{clip-path:url(#SVGID_00000169515953069354540650000001716722070384018327_);fill:#A31E28;}
	.st58{clip-path:url(#SVGID_00000169515953069354540650000001716722070384018327_);fill:#A21E27;}
	.st59{clip-path:url(#SVGID_00000169515953069354540650000001716722070384018327_);fill:#A11D27;}
	.st60{clip-path:url(#SVGID_00000169515953069354540650000001716722070384018327_);fill:#A01D27;}
	.st61{clip-path:url(#SVGID_00000169515953069354540650000001716722070384018327_);fill:#9F1D26;}
	.st62{clip-path:url(#SVGID_00000169515953069354540650000001716722070384018327_);fill:#9D1D26;}
	.st63{clip-path:url(#SVGID_00000169515953069354540650000001716722070384018327_);fill:#9C1D26;}
	.st64{clip-path:url(#SVGID_00000169515953069354540650000001716722070384018327_);fill:#9B1D25;}
	.st65{clip-path:url(#SVGID_00000169515953069354540650000001716722070384018327_);fill:#9A1D25;}
	.st66{clip-path:url(#SVGID_00000169515953069354540650000001716722070384018327_);fill:#991C24;}
	.st67{clip-path:url(#SVGID_00000169515953069354540650000001716722070384018327_);fill:#981C24;}
	.st68{clip-path:url(#SVGID_00000169515953069354540650000001716722070384018327_);fill:#971C24;}
	.st69{clip-path:url(#SVGID_00000169515953069354540650000001716722070384018327_);fill:#961C23;}
	.st70{clip-path:url(#SVGID_00000169515953069354540650000001716722070384018327_);fill:#951C23;}
	.st71{clip-path:url(#SVGID_00000169515953069354540650000001716722070384018327_);fill:#941C22;}
	.st72{clip-path:url(#SVGID_00000169515953069354540650000001716722070384018327_);fill:#931B22;}
	.st73{clip-path:url(#SVGID_00000169515953069354540650000001716722070384018327_);fill:#921B22;}
	.st74{clip-path:url(#SVGID_00000169515953069354540650000001716722070384018327_);fill:#911B21;}
	.st75{clip-path:url(#SVGID_00000169515953069354540650000001716722070384018327_);fill:#901B21;}
	.st76{clip-path:url(#SVGID_00000169515953069354540650000001716722070384018327_);fill:#8F1B20;}
	.st77{clip-path:url(#SVGID_00000169515953069354540650000001716722070384018327_);fill:#8E1B20;}
	.st78{clip-path:url(#SVGID_00000169515953069354540650000001716722070384018327_);fill:#8D1A20;}
	.st79{clip-path:url(#SVGID_00000169515953069354540650000001716722070384018327_);fill:#8C1A1F;}
	.st80{clip-path:url(#SVGID_00000169515953069354540650000001716722070384018327_);fill:#8B1A1F;}
	.st81{clip-path:url(#SVGID_00000169515953069354540650000001716722070384018327_);fill:#8A1A1E;}
	.st82{clip-path:url(#SVGID_00000169515953069354540650000001716722070384018327_);fill:#891A1E;}
	.st83{clip-path:url(#SVGID_00000169515953069354540650000001716722070384018327_);fill:#88191E;}
	.st84{clip-path:url(#SVGID_00000169515953069354540650000001716722070384018327_);fill:#87191D;}
	.st85{clip-path:url(#SVGID_00000169515953069354540650000001716722070384018327_);fill:#86191D;}
	.st86{clip-path:url(#SVGID_00000096764015097586305280000011307194816299227831_);fill:#E3253F;}
	.st87{clip-path:url(#SVGID_00000096764015097586305280000011307194816299227831_);fill:#E1253E;}
	.st88{clip-path:url(#SVGID_00000096764015097586305280000011307194816299227831_);fill:#DF253D;}
	.st89{clip-path:url(#SVGID_00000096764015097586305280000011307194816299227831_);fill:#DE253D;}
	.st90{clip-path:url(#SVGID_00000096764015097586305280000011307194816299227831_);fill:#DC243C;}
	.st91{clip-path:url(#SVGID_00000096764015097586305280000011307194816299227831_);fill:#DB243C;}
	.st92{clip-path:url(#SVGID_00000096764015097586305280000011307194816299227831_);fill:#DA243B;}
	.st93{clip-path:url(#SVGID_00000096764015097586305280000011307194816299227831_);fill:#D8243B;}
	.st94{clip-path:url(#SVGID_00000096764015097586305280000011307194816299227831_);fill:#D7243B;}
	.st95{clip-path:url(#SVGID_00000096764015097586305280000011307194816299227831_);fill:#D6243A;}
	.st96{clip-path:url(#SVGID_00000096764015097586305280000011307194816299227831_);fill:#D5243A;}
	.st97{clip-path:url(#SVGID_00000096764015097586305280000011307194816299227831_);fill:#D32439;}
	.st98{clip-path:url(#SVGID_00000096764015097586305280000011307194816299227831_);fill:#D22339;}
	.st99{clip-path:url(#SVGID_00000096764015097586305280000011307194816299227831_);fill:#D12339;}
	.st100{clip-path:url(#SVGID_00000096764015097586305280000011307194816299227831_);fill:#D02338;}
	.st101{clip-path:url(#SVGID_00000096764015097586305280000011307194816299227831_);fill:#CF2338;}
	.st102{clip-path:url(#SVGID_00000096764015097586305280000011307194816299227831_);fill:#CE2337;}
	.st103{clip-path:url(#SVGID_00000096764015097586305280000011307194816299227831_);fill:#CD2337;}
	.st104{clip-path:url(#SVGID_00000096764015097586305280000011307194816299227831_);fill:#CB2336;}
	.st105{clip-path:url(#SVGID_00000096764015097586305280000011307194816299227831_);fill:#CA2336;}
	.st106{clip-path:url(#SVGID_00000096764015097586305280000011307194816299227831_);fill:#C92236;}
	.st107{clip-path:url(#SVGID_00000096764015097586305280000011307194816299227831_);fill:#C82235;}
	.st108{clip-path:url(#SVGID_00000096764015097586305280000011307194816299227831_);fill:#C72235;}
	.st109{clip-path:url(#SVGID_00000096764015097586305280000011307194816299227831_);fill:#C62234;}
	.st110{clip-path:url(#SVGID_00000096764015097586305280000011307194816299227831_);fill:#C42234;}
	.st111{clip-path:url(#SVGID_00000096764015097586305280000011307194816299227831_);fill:#C32234;}
	.st112{clip-path:url(#SVGID_00000096764015097586305280000011307194816299227831_);fill:#C22233;}
	.st113{clip-path:url(#SVGID_00000096764015097586305280000011307194816299227831_);fill:#C12233;}
	.st114{clip-path:url(#SVGID_00000096764015097586305280000011307194816299227831_);fill:#C02232;}
	.st115{clip-path:url(#SVGID_00000096764015097586305280000011307194816299227831_);fill:#BF2132;}
	.st116{clip-path:url(#SVGID_00000096764015097586305280000011307194816299227831_);fill:#BE2132;}
	.st117{clip-path:url(#SVGID_00000096764015097586305280000011307194816299227831_);fill:#BC2131;}
	.st118{clip-path:url(#SVGID_00000096764015097586305280000011307194816299227831_);fill:#BB2131;}
	.st119{clip-path:url(#SVGID_00000096764015097586305280000011307194816299227831_);fill:#BA2130;}
	.st120{clip-path:url(#SVGID_00000096764015097586305280000011307194816299227831_);fill:#B92130;}
	.st121{clip-path:url(#SVGID_00000096764015097586305280000011307194816299227831_);fill:#B82130;}
	.st122{clip-path:url(#SVGID_00000096764015097586305280000011307194816299227831_);fill:#B7212F;}
	.st123{clip-path:url(#SVGID_00000096764015097586305280000011307194816299227831_);fill:#B6212F;}
	.st124{clip-path:url(#SVGID_00000096764015097586305280000011307194816299227831_);fill:#B5202E;}
	.st125{clip-path:url(#SVGID_00000096764015097586305280000011307194816299227831_);fill:#B4202E;}
	.st126{clip-path:url(#SVGID_00000096764015097586305280000011307194816299227831_);fill:#B3202E;}
	.st127{clip-path:url(#SVGID_00000096764015097586305280000011307194816299227831_);fill:#B2202D;}
	.st128{clip-path:url(#SVGID_00000096764015097586305280000011307194816299227831_);fill:#B0202D;}
	.st129{clip-path:url(#SVGID_00000096764015097586305280000011307194816299227831_);fill:#AF202C;}
	.st130{clip-path:url(#SVGID_00000096764015097586305280000011307194816299227831_);fill:#AE202C;}
	.st131{clip-path:url(#SVGID_00000096764015097586305280000011307194816299227831_);fill:#AD1F2C;}
	.st132{clip-path:url(#SVGID_00000096764015097586305280000011307194816299227831_);fill:#AC1F2B;}
	.st133{clip-path:url(#SVGID_00000096764015097586305280000011307194816299227831_);fill:#AB1F2B;}
	.st134{clip-path:url(#SVGID_00000096764015097586305280000011307194816299227831_);fill:#AA1F2B;}
	.st135{clip-path:url(#SVGID_00000096764015097586305280000011307194816299227831_);fill:#A91F2A;}
	.st136{clip-path:url(#SVGID_00000096764015097586305280000011307194816299227831_);fill:#A81F2A;}
	.st137{clip-path:url(#SVGID_00000096764015097586305280000011307194816299227831_);fill:#A71E29;}
	.st138{clip-path:url(#SVGID_00000096764015097586305280000011307194816299227831_);fill:#A61E29;}
	.st139{clip-path:url(#SVGID_00000096764015097586305280000011307194816299227831_);fill:#A51E29;}
	.st140{clip-path:url(#SVGID_00000096764015097586305280000011307194816299227831_);fill:#A41E28;}
	.st141{clip-path:url(#SVGID_00000096764015097586305280000011307194816299227831_);fill:#A31E28;}
	.st142{clip-path:url(#SVGID_00000096764015097586305280000011307194816299227831_);fill:#A21E27;}
	.st143{clip-path:url(#SVGID_00000096764015097586305280000011307194816299227831_);fill:#A11D27;}
	.st144{clip-path:url(#SVGID_00000096764015097586305280000011307194816299227831_);fill:#A01D27;}
	.st145{clip-path:url(#SVGID_00000096764015097586305280000011307194816299227831_);fill:#9F1D26;}
	.st146{clip-path:url(#SVGID_00000096764015097586305280000011307194816299227831_);fill:#9D1D26;}
	.st147{clip-path:url(#SVGID_00000096764015097586305280000011307194816299227831_);fill:#9C1D26;}
	.st148{clip-path:url(#SVGID_00000096764015097586305280000011307194816299227831_);fill:#9B1D25;}
	.st149{clip-path:url(#SVGID_00000096764015097586305280000011307194816299227831_);fill:#9A1D25;}
	.st150{clip-path:url(#SVGID_00000096764015097586305280000011307194816299227831_);fill:#991C24;}
	.st151{clip-path:url(#SVGID_00000096764015097586305280000011307194816299227831_);fill:#981C24;}
	.st152{clip-path:url(#SVGID_00000096764015097586305280000011307194816299227831_);fill:#971C24;}
	.st153{clip-path:url(#SVGID_00000096764015097586305280000011307194816299227831_);fill:#961C23;}
	.st154{clip-path:url(#SVGID_00000096764015097586305280000011307194816299227831_);fill:#951C23;}
	.st155{clip-path:url(#SVGID_00000096764015097586305280000011307194816299227831_);fill:#941C22;}
	.st156{clip-path:url(#SVGID_00000096764015097586305280000011307194816299227831_);fill:#931B22;}
	.st157{clip-path:url(#SVGID_00000096764015097586305280000011307194816299227831_);fill:#921B22;}
	.st158{clip-path:url(#SVGID_00000096764015097586305280000011307194816299227831_);fill:#911B21;}
	.st159{clip-path:url(#SVGID_00000096764015097586305280000011307194816299227831_);fill:#901B21;}
	.st160{clip-path:url(#SVGID_00000096764015097586305280000011307194816299227831_);fill:#8F1B20;}
	.st161{clip-path:url(#SVGID_00000096764015097586305280000011307194816299227831_);fill:#8E1B20;}
	.st162{clip-path:url(#SVGID_00000096764015097586305280000011307194816299227831_);fill:#8D1A20;}
	.st163{clip-path:url(#SVGID_00000096764015097586305280000011307194816299227831_);fill:#8C1A1F;}
	.st164{clip-path:url(#SVGID_00000096764015097586305280000011307194816299227831_);fill:#8B1A1F;}
	.st165{clip-path:url(#SVGID_00000096764015097586305280000011307194816299227831_);fill:#8A1A1E;}
	.st166{clip-path:url(#SVGID_00000096764015097586305280000011307194816299227831_);fill:#891A1E;}
	.st167{clip-path:url(#SVGID_00000096764015097586305280000011307194816299227831_);fill:#88191E;}
	.st168{clip-path:url(#SVGID_00000096764015097586305280000011307194816299227831_);fill:#87191D;}
	.st169{clip-path:url(#SVGID_00000096764015097586305280000011307194816299227831_);fill:#86191D;}
</style>
<g>
	<path class="st0" d="M39.4,21.2v1.6c-0.9,0.5-1.9,0.7-2.8,0.7c-1.3,0-2.3-0.4-3.1-1.1c-0.8-0.7-1.1-1.6-1.1-2.6
		c0-1,0.4-1.9,1.2-2.7c0.8-0.7,1.9-1.1,3.2-1.1c1,0,1.9,0.2,2.6,0.6v1.6c-0.9-0.5-1.7-0.7-2.5-0.7c-0.8,0-1.4,0.2-1.9,0.6
		s-0.7,0.9-0.7,1.6c0,0.6,0.2,1.2,0.7,1.6s1.1,0.6,1.9,0.6c0.4,0,0.7,0,1.1-0.1S38.8,21.5,39.4,21.2z"/>
	<path class="st0" d="M46.5,16.2h1.8v4.1c0,1.1-0.3,1.9-0.9,2.4c-0.6,0.5-1.5,0.8-2.7,0.8c-1.1,0-2-0.3-2.7-0.8
		c-0.6-0.6-1-1.3-1-2.4v-4.1h1.8v4.2c0,0.5,0.2,0.9,0.5,1.2c0.3,0.3,0.8,0.5,1.3,0.5c0.6,0,1-0.2,1.3-0.5c0.3-0.3,0.5-0.8,0.5-1.3
		V16.2z"/>
	<path class="st0" d="M50,16.2h3.1c0.7,0,1.3,0.2,1.8,0.5c0.4,0.4,0.6,0.8,0.6,1.3c0,0.6-0.3,1.1-1,1.4c0.5,0.1,0.9,0.4,1.1,0.7
		c0.3,0.3,0.4,0.7,0.4,1.2c0,0.6-0.2,1.1-0.6,1.5c-0.4,0.4-1.1,0.6-1.9,0.6H50V16.2z M51.8,17.5V19h0.9c0.3,0,0.5-0.1,0.7-0.2
		c0.2-0.1,0.2-0.3,0.2-0.6c0-0.2-0.1-0.4-0.2-0.5s-0.4-0.2-0.7-0.2H51.8z M51.8,20.4v1.7h1c0.5,0,0.8-0.1,1-0.2s0.3-0.4,0.3-0.7
		c0-0.3-0.1-0.5-0.3-0.6c-0.2-0.1-0.5-0.2-0.8-0.2H51.8z"/>
	<path class="st0" d="M63,22.1v1.3h-5.3v-7.2H63v1.3h-3.5V19h3.3v1.3h-3.3v1.7H63z"/>
	<path class="st0" d="M64.6,16.2h3.2c0.7,0,1.3,0.2,1.7,0.6s0.7,0.9,0.7,1.5c0,0.8-0.4,1.4-1.2,1.8c0.4,0.2,0.7,0.6,1,1.3
		s0.6,1.4,0.9,2.1h-2c-0.1-0.2-0.3-0.7-0.6-1.4c-0.3-0.7-0.5-1.1-0.8-1.3c-0.2-0.2-0.4-0.3-0.7-0.3h-0.5v2.9h-1.8V16.2z M66.4,17.5
		v1.6h1c0.3,0,0.5-0.1,0.7-0.2c0.2-0.1,0.3-0.3,0.3-0.6c0-0.5-0.3-0.8-1-0.8H66.4z"/>
	<path class="st0" d="M75.7,16.1c1.2,0,2.2,0.4,3,1.1c0.8,0.7,1.1,1.6,1.1,2.6c0,1-0.4,1.9-1.2,2.6c-0.8,0.7-1.8,1.1-3,1.1
		c-1.2,0-2.2-0.4-3-1.1c-0.8-0.7-1.2-1.6-1.2-2.6c0-1,0.4-1.9,1.1-2.6C73.5,16.4,74.5,16.1,75.7,16.1z M75.7,22
		c0.7,0,1.2-0.2,1.7-0.6s0.6-0.9,0.6-1.6c0-0.7-0.2-1.2-0.6-1.6c-0.4-0.4-1-0.6-1.7-0.6c-0.7,0-1.2,0.2-1.7,0.6
		c-0.4,0.4-0.6,0.9-0.6,1.6c0,0.7,0.2,1.2,0.6,1.6S75,22,75.7,22z"/>
	<path class="st0" d="M85.2,16.1c1.2,0,2.2,0.4,3,1.1c0.8,0.7,1.1,1.6,1.1,2.6c0,1-0.4,1.9-1.2,2.6c-0.8,0.7-1.8,1.1-3,1.1
		c-1.2,0-2.2-0.4-3-1.1c-0.8-0.7-1.2-1.6-1.2-2.6c0-1,0.4-1.9,1.1-2.6C83,16.4,84,16.1,85.2,16.1z M85.2,22c0.7,0,1.2-0.2,1.7-0.6
		s0.6-0.9,0.6-1.6c0-0.7-0.2-1.2-0.6-1.6c-0.4-0.4-1-0.6-1.7-0.6c-0.7,0-1.2,0.2-1.7,0.6c-0.4,0.4-0.6,0.9-0.6,1.6
		c0,0.7,0.2,1.2,0.6,1.6S84.5,22,85.2,22z"/>
	<path class="st0" d="M96.7,16.2v1.3h-2.6v5.9h-1.8v-5.9h-2.6v-1.3H96.7z"/>
</g>
<g>
	<g>
		<path class="st1" d="M33,13.3V9.1h1.5c0.8,0,1.3,0.2,1.8,0.6c0.4,0.4,0.6,0.9,0.6,1.5c0,0.6-0.2,1.1-0.6,1.5
			c-0.4,0.4-1,0.6-1.8,0.6H33z M33.7,12.8h0.9c0.6,0,1-0.2,1.4-0.5c0.3-0.3,0.5-0.7,0.5-1.1c0-0.4-0.2-0.8-0.5-1.1
			c-0.3-0.3-0.8-0.5-1.4-0.5h-0.9V12.8z"/>
	</g>
	<g>
		<path class="st1" d="M44.3,13.3V9.1h0.6v4.2H44.3z"/>
	</g>
	<g>
		<path class="st1" d="M57.5,11.2v0.5H57c-0.1,0.5-0.4,0.9-0.7,1.2c-0.4,0.3-0.9,0.4-1.5,0.4c-0.7,0-1.3-0.2-1.8-0.6
			c-0.4-0.4-0.7-0.9-0.7-1.6c0-0.6,0.2-1.2,0.7-1.6C53.3,9.2,54,9,54.7,9c0.5,0,1,0.1,1.4,0.4c0.4,0.2,0.6,0.6,0.7,0.9h-0.7
			C56,10,55.9,9.8,55.6,9.7c-0.2-0.1-0.5-0.2-0.9-0.2c-0.6,0-1,0.2-1.4,0.5c-0.3,0.3-0.5,0.7-0.5,1.3c0,0.5,0.2,0.9,0.5,1.2
			c0.3,0.3,0.8,0.5,1.3,0.5c0.4,0,0.8-0.1,1.1-0.3c0.3-0.2,0.5-0.5,0.5-0.9h-1.2v-0.5H57.5z"/>
	</g>
	<g>
		<path class="st1" d="M64.7,13.3V9.1h0.6v4.2H64.7z"/>
	</g>
	<g>
		<path class="st1" d="M73.9,13.3V9.6h-1.4V9.1h3.5v0.5h-1.4v3.7H73.9z"/>
	</g>
	<g>
		<polygon class="st1" points="84.4,9.1 83.7,9.1 81.6,13.3 82.3,13.3 84.1,9.7 85.7,13.3 86.4,13.3 		"/>
	</g>
	<g>
		<path class="st1" d="M93.1,13.3V9.1h0.6v3.7h2v0.5H93.1z"/>
	</g>
</g>
<g>
	<g>
		<path class="st0" d="M14.8,18.4l-3.5-2.3l3.1-2.1c0.1,0,0.1-0.1,0-0.2c0-0.1-0.1-0.1-0.2,0l-3.2,2.1L0.8,9.2l13.4-8.6
			c0.1,0,0.1-0.1,0-0.2c0-0.1-0.1-0.1-0.2,0L0.5,9.1c0,0,0,0,0,0c0,0,0,0,0,0c0,0,0,0,0,0c0,0,0,0,0,0c0,0-0.1,0.1-0.1,0.1l0.1,13.9
			c0,0,0,0,0,0c0,0,0,0,0,0.1c0,0.1,0.1,0.1,0.1,0.1L14,32.1c0,0,0.1,0,0.1,0c0,0,0.1,0,0.1-0.1c0-0.1,0-0.2,0-0.2L0.8,23.2
			l10.3-6.9l3.6,2.3c0,0,0.1,0,0.1,0c0,0,0.1,0,0.1-0.1C14.9,18.5,14.9,18.4,14.8,18.4z M0.6,9.4l10.2,6.7L0.7,22.9L0.6,9.4z"/>
	</g>
	<g>
		<g>
			<defs>
				<polygon id="SVGID_1_" points="27.7,9.2 27.7,9.2 17.2,16.2 14.1,14.2 14.1,0.2 				"/>
			</defs>
			<clipPath id="SVGID_00000018215986312046517100000002865733958571449733_">
				<use xlink:href="#SVGID_1_"  style="overflow:visible;"/>
			</clipPath>
			<path style="clip-path:url(#SVGID_00000018215986312046517100000002865733958571449733_);fill:#E3253F;" d="M14.1,0.2v16V0.2z"/>
			
				<rect x="14.1" y="0.2" style="clip-path:url(#SVGID_00000018215986312046517100000002865733958571449733_);fill:#E3253F;" width="0.2" height="16"/>
			
				<rect x="14.3" y="0.2" style="clip-path:url(#SVGID_00000018215986312046517100000002865733958571449733_);fill:#E1253E;" width="0.2" height="16"/>
			
				<rect x="14.5" y="0.2" style="clip-path:url(#SVGID_00000018215986312046517100000002865733958571449733_);fill:#DF253D;" width="0.2" height="16"/>
			
				<rect x="14.6" y="0.2" style="clip-path:url(#SVGID_00000018215986312046517100000002865733958571449733_);fill:#DE253D;" width="0.2" height="16"/>
			
				<rect x="14.8" y="0.2" style="clip-path:url(#SVGID_00000018215986312046517100000002865733958571449733_);fill:#DC243C;" width="0.2" height="16"/>
			
				<rect x="14.9" y="0.2" style="clip-path:url(#SVGID_00000018215986312046517100000002865733958571449733_);fill:#DB243C;" width="0.2" height="16"/>
			
				<rect x="15.1" y="0.2" style="clip-path:url(#SVGID_00000018215986312046517100000002865733958571449733_);fill:#DA243B;" width="0.2" height="16"/>
			
				<rect x="15.3" y="0.2" style="clip-path:url(#SVGID_00000018215986312046517100000002865733958571449733_);fill:#D8243B;" width="0.2" height="16"/>
			
				<rect x="15.4" y="0.2" style="clip-path:url(#SVGID_00000018215986312046517100000002865733958571449733_);fill:#D7243B;" width="0.2" height="16"/>
			
				<rect x="15.6" y="0.2" style="clip-path:url(#SVGID_00000018215986312046517100000002865733958571449733_);fill:#D6243A;" width="0.2" height="16"/>
			
				<rect x="15.7" y="0.2" style="clip-path:url(#SVGID_00000018215986312046517100000002865733958571449733_);fill:#D5243A;" width="0.2" height="16"/>
			
				<rect x="15.9" y="0.2" style="clip-path:url(#SVGID_00000018215986312046517100000002865733958571449733_);fill:#D32439;" width="0.2" height="16"/>
			
				<rect x="16.1" y="0.2" style="clip-path:url(#SVGID_00000018215986312046517100000002865733958571449733_);fill:#D22339;" width="0.2" height="16"/>
			
				<rect x="16.2" y="0.2" style="clip-path:url(#SVGID_00000018215986312046517100000002865733958571449733_);fill:#D12339;" width="0.2" height="16"/>
			
				<rect x="16.4" y="0.2" style="clip-path:url(#SVGID_00000018215986312046517100000002865733958571449733_);fill:#D02338;" width="0.2" height="16"/>
			
				<rect x="16.6" y="0.2" style="clip-path:url(#SVGID_00000018215986312046517100000002865733958571449733_);fill:#CF2338;" width="0.2" height="16"/>
			
				<rect x="16.7" y="0.2" style="clip-path:url(#SVGID_00000018215986312046517100000002865733958571449733_);fill:#CE2337;" width="0.2" height="16"/>
			
				<rect x="16.9" y="0.2" style="clip-path:url(#SVGID_00000018215986312046517100000002865733958571449733_);fill:#CD2337;" width="0.2" height="16"/>
			
				<rect x="17" y="0.2" style="clip-path:url(#SVGID_00000018215986312046517100000002865733958571449733_);fill:#CB2336;" width="0.2" height="16"/>
			
				<rect x="17.2" y="0.2" style="clip-path:url(#SVGID_00000018215986312046517100000002865733958571449733_);fill:#CA2336;" width="0.2" height="16"/>
			
				<rect x="17.4" y="0.2" style="clip-path:url(#SVGID_00000018215986312046517100000002865733958571449733_);fill:#C92236;" width="0.2" height="16"/>
			
				<rect x="17.5" y="0.2" style="clip-path:url(#SVGID_00000018215986312046517100000002865733958571449733_);fill:#C82235;" width="0.2" height="16"/>
			
				<rect x="17.7" y="0.2" style="clip-path:url(#SVGID_00000018215986312046517100000002865733958571449733_);fill:#C72235;" width="0.2" height="16"/>
			
				<rect x="17.8" y="0.2" style="clip-path:url(#SVGID_00000018215986312046517100000002865733958571449733_);fill:#C62234;" width="0.2" height="16"/>
			
				<rect x="18" y="0.2" style="clip-path:url(#SVGID_00000018215986312046517100000002865733958571449733_);fill:#C42234;" width="0.2" height="16"/>
			
				<rect x="18.2" y="0.2" style="clip-path:url(#SVGID_00000018215986312046517100000002865733958571449733_);fill:#C32234;" width="0.2" height="16"/>
			
				<rect x="18.3" y="0.2" style="clip-path:url(#SVGID_00000018215986312046517100000002865733958571449733_);fill:#C22233;" width="0.2" height="16"/>
			
				<rect x="18.5" y="0.2" style="clip-path:url(#SVGID_00000018215986312046517100000002865733958571449733_);fill:#C12233;" width="0.2" height="16"/>
			
				<rect x="18.7" y="0.2" style="clip-path:url(#SVGID_00000018215986312046517100000002865733958571449733_);fill:#C02232;" width="0.2" height="16"/>
			
				<rect x="18.8" y="0.2" style="clip-path:url(#SVGID_00000018215986312046517100000002865733958571449733_);fill:#BF2132;" width="0.2" height="16"/>
			
				<rect x="19" y="0.2" style="clip-path:url(#SVGID_00000018215986312046517100000002865733958571449733_);fill:#BE2132;" width="0.2" height="16"/>
			
				<rect x="19.1" y="0.2" style="clip-path:url(#SVGID_00000018215986312046517100000002865733958571449733_);fill:#BC2131;" width="0.2" height="16"/>
			
				<rect x="19.3" y="0.2" style="clip-path:url(#SVGID_00000018215986312046517100000002865733958571449733_);fill:#BB2131;" width="0.2" height="16"/>
			
				<rect x="19.5" y="0.2" style="clip-path:url(#SVGID_00000018215986312046517100000002865733958571449733_);fill:#BA2130;" width="0.2" height="16"/>
			
				<rect x="19.6" y="0.2" style="clip-path:url(#SVGID_00000018215986312046517100000002865733958571449733_);fill:#B92130;" width="0.2" height="16"/>
			
				<rect x="19.8" y="0.2" style="clip-path:url(#SVGID_00000018215986312046517100000002865733958571449733_);fill:#B82130;" width="0.2" height="16"/>
			
				<rect x="19.9" y="0.2" style="clip-path:url(#SVGID_00000018215986312046517100000002865733958571449733_);fill:#B7212F;" width="0.2" height="16"/>
			
				<rect x="20.1" y="0.2" style="clip-path:url(#SVGID_00000018215986312046517100000002865733958571449733_);fill:#B6212F;" width="0.2" height="16"/>
			
				<rect x="20.3" y="0.2" style="clip-path:url(#SVGID_00000018215986312046517100000002865733958571449733_);fill:#B5202E;" width="0.2" height="16"/>
			
				<rect x="20.4" y="0.2" style="clip-path:url(#SVGID_00000018215986312046517100000002865733958571449733_);fill:#B4202E;" width="0.2" height="16"/>
			
				<rect x="20.6" y="0.2" style="clip-path:url(#SVGID_00000018215986312046517100000002865733958571449733_);fill:#B3202E;" width="0.2" height="16"/>
			
				<rect x="20.8" y="0.2" style="clip-path:url(#SVGID_00000018215986312046517100000002865733958571449733_);fill:#B2202D;" width="0.2" height="16"/>
			
				<rect x="20.9" y="0.2" style="clip-path:url(#SVGID_00000018215986312046517100000002865733958571449733_);fill:#B0202D;" width="0.2" height="16"/>
			
				<rect x="21.1" y="0.2" style="clip-path:url(#SVGID_00000018215986312046517100000002865733958571449733_);fill:#AF202C;" width="0.2" height="16"/>
			
				<rect x="21.2" y="0.2" style="clip-path:url(#SVGID_00000018215986312046517100000002865733958571449733_);fill:#AE202C;" width="0.2" height="16"/>
			
				<rect x="21.4" y="0.2" style="clip-path:url(#SVGID_00000018215986312046517100000002865733958571449733_);fill:#AD1F2C;" width="0.2" height="16"/>
			
				<rect x="21.6" y="0.2" style="clip-path:url(#SVGID_00000018215986312046517100000002865733958571449733_);fill:#AC1F2B;" width="0.2" height="16"/>
			
				<rect x="21.7" y="0.2" style="clip-path:url(#SVGID_00000018215986312046517100000002865733958571449733_);fill:#AB1F2B;" width="0.2" height="16"/>
			
				<rect x="21.9" y="0.2" style="clip-path:url(#SVGID_00000018215986312046517100000002865733958571449733_);fill:#AA1F2B;" width="0.2" height="16"/>
			
				<rect x="22" y="0.2" style="clip-path:url(#SVGID_00000018215986312046517100000002865733958571449733_);fill:#A91F2A;" width="0.2" height="16"/>
			
				<rect x="22.2" y="0.2" style="clip-path:url(#SVGID_00000018215986312046517100000002865733958571449733_);fill:#A81F2A;" width="0.2" height="16"/>
			
				<rect x="22.4" y="0.2" style="clip-path:url(#SVGID_00000018215986312046517100000002865733958571449733_);fill:#A71E29;" width="0.2" height="16"/>
			
				<rect x="22.5" y="0.2" style="clip-path:url(#SVGID_00000018215986312046517100000002865733958571449733_);fill:#A61E29;" width="0.2" height="16"/>
			
				<rect x="22.7" y="0.2" style="clip-path:url(#SVGID_00000018215986312046517100000002865733958571449733_);fill:#A51E29;" width="0.2" height="16"/>
			
				<rect x="22.9" y="0.2" style="clip-path:url(#SVGID_00000018215986312046517100000002865733958571449733_);fill:#A41E28;" width="0.2" height="16"/>
			
				<rect x="23" y="0.2" style="clip-path:url(#SVGID_00000018215986312046517100000002865733958571449733_);fill:#A31E28;" width="0.2" height="16"/>
			
				<rect x="23.2" y="0.2" style="clip-path:url(#SVGID_00000018215986312046517100000002865733958571449733_);fill:#A21E27;" width="0.2" height="16"/>
			
				<rect x="23.3" y="0.2" style="clip-path:url(#SVGID_00000018215986312046517100000002865733958571449733_);fill:#A11D27;" width="0.2" height="16"/>
			
				<rect x="23.5" y="0.2" style="clip-path:url(#SVGID_00000018215986312046517100000002865733958571449733_);fill:#A01D27;" width="0.2" height="16"/>
			
				<rect x="23.7" y="0.2" style="clip-path:url(#SVGID_00000018215986312046517100000002865733958571449733_);fill:#9F1D26;" width="0.2" height="16"/>
			
				<rect x="23.8" y="0.2" style="clip-path:url(#SVGID_00000018215986312046517100000002865733958571449733_);fill:#9D1D26;" width="0.2" height="16"/>
			
				<rect x="24" y="0.2" style="clip-path:url(#SVGID_00000018215986312046517100000002865733958571449733_);fill:#9C1D26;" width="0.2" height="16"/>
			
				<rect x="24.2" y="0.2" style="clip-path:url(#SVGID_00000018215986312046517100000002865733958571449733_);fill:#9B1D25;" width="0.2" height="16"/>
			
				<rect x="24.3" y="0.2" style="clip-path:url(#SVGID_00000018215986312046517100000002865733958571449733_);fill:#9A1D25;" width="0.2" height="16"/>
			
				<rect x="24.5" y="0.2" style="clip-path:url(#SVGID_00000018215986312046517100000002865733958571449733_);fill:#991C24;" width="0.2" height="16"/>
			
				<rect x="24.6" y="0.2" style="clip-path:url(#SVGID_00000018215986312046517100000002865733958571449733_);fill:#981C24;" width="0.2" height="16"/>
			
				<rect x="24.8" y="0.2" style="clip-path:url(#SVGID_00000018215986312046517100000002865733958571449733_);fill:#971C24;" width="0.2" height="16"/>
			
				<rect x="25" y="0.2" style="clip-path:url(#SVGID_00000018215986312046517100000002865733958571449733_);fill:#961C23;" width="0.2" height="16"/>
			
				<rect x="25.1" y="0.2" style="clip-path:url(#SVGID_00000018215986312046517100000002865733958571449733_);fill:#951C23;" width="0.2" height="16"/>
			
				<rect x="25.3" y="0.2" style="clip-path:url(#SVGID_00000018215986312046517100000002865733958571449733_);fill:#941C22;" width="0.2" height="16"/>
			
				<rect x="25.4" y="0.2" style="clip-path:url(#SVGID_00000018215986312046517100000002865733958571449733_);fill:#931B22;" width="0.2" height="16"/>
			
				<rect x="25.6" y="0.2" style="clip-path:url(#SVGID_00000018215986312046517100000002865733958571449733_);fill:#921B22;" width="0.2" height="16"/>
			
				<rect x="25.8" y="0.2" style="clip-path:url(#SVGID_00000018215986312046517100000002865733958571449733_);fill:#911B21;" width="0.2" height="16"/>
			
				<rect x="25.9" y="0.2" style="clip-path:url(#SVGID_00000018215986312046517100000002865733958571449733_);fill:#901B21;" width="0.2" height="16"/>
			
				<rect x="26.1" y="0.2" style="clip-path:url(#SVGID_00000018215986312046517100000002865733958571449733_);fill:#8F1B20;" width="0.2" height="16"/>
			
				<rect x="26.3" y="0.2" style="clip-path:url(#SVGID_00000018215986312046517100000002865733958571449733_);fill:#8E1B20;" width="0.2" height="16"/>
			
				<rect x="26.4" y="0.2" style="clip-path:url(#SVGID_00000018215986312046517100000002865733958571449733_);fill:#8D1A20;" width="0.2" height="16"/>
			
				<rect x="26.6" y="0.2" style="clip-path:url(#SVGID_00000018215986312046517100000002865733958571449733_);fill:#8C1A1F;" width="0.2" height="16"/>
			
				<rect x="26.7" y="0.2" style="clip-path:url(#SVGID_00000018215986312046517100000002865733958571449733_);fill:#8B1A1F;" width="0.2" height="16"/>
			
				<rect x="26.9" y="0.2" style="clip-path:url(#SVGID_00000018215986312046517100000002865733958571449733_);fill:#8A1A1E;" width="0.2" height="16"/>
			
				<rect x="27.1" y="0.2" style="clip-path:url(#SVGID_00000018215986312046517100000002865733958571449733_);fill:#891A1E;" width="0.2" height="16"/>
			
				<rect x="27.2" y="0.2" style="clip-path:url(#SVGID_00000018215986312046517100000002865733958571449733_);fill:#88191E;" width="0.2" height="16"/>
			
				<rect x="27.4" y="0.2" style="clip-path:url(#SVGID_00000018215986312046517100000002865733958571449733_);fill:#87191D;" width="0.2" height="16"/>
			
				<rect x="27.5" y="0.2" style="clip-path:url(#SVGID_00000018215986312046517100000002865733958571449733_);fill:#86191D;" width="0.2" height="16"/>
			<path style="clip-path:url(#SVGID_00000018215986312046517100000002865733958571449733_);fill:#86191D;" d="M27.7,16.2v-16V16.2z
				"/>
		</g>
	</g>
	<g>
		<polygon class="st1" points="27.6,9.2 27.6,23.2 17.1,16.2 		"/>
	</g>
	<g>
		<g>
			<defs>
				<polygon id="SVGID_00000088111873721793221120000013079747252284557969_" points="27.6,23.2 27.6,23.2 14.1,32.2 14.1,18.2 
					17.1,16.2 				"/>
			</defs>
			<clipPath id="SVGID_00000041272181149627773730000000405873342311292814_">
				<use xlink:href="#SVGID_00000088111873721793221120000013079747252284557969_"  style="overflow:visible;"/>
			</clipPath>
			<path style="clip-path:url(#SVGID_00000041272181149627773730000000405873342311292814_);fill:#E3253F;" d="M14.1,16.2v16V16.2z"
				/>
			
				<rect x="14.1" y="16.2" style="clip-path:url(#SVGID_00000041272181149627773730000000405873342311292814_);fill:#E3253F;" width="0.2" height="16"/>
			
				<rect x="14.2" y="16.2" style="clip-path:url(#SVGID_00000041272181149627773730000000405873342311292814_);fill:#E1253E;" width="0.2" height="16"/>
			
				<rect x="14.4" y="16.2" style="clip-path:url(#SVGID_00000041272181149627773730000000405873342311292814_);fill:#DF253D;" width="0.2" height="16"/>
			
				<rect x="14.5" y="16.2" style="clip-path:url(#SVGID_00000041272181149627773730000000405873342311292814_);fill:#DE253D;" width="0.2" height="16"/>
			
				<rect x="14.7" y="16.2" style="clip-path:url(#SVGID_00000041272181149627773730000000405873342311292814_);fill:#DC243C;" width="0.2" height="16"/>
			
				<rect x="14.9" y="16.2" style="clip-path:url(#SVGID_00000041272181149627773730000000405873342311292814_);fill:#DB243C;" width="0.2" height="16"/>
			
				<rect x="15" y="16.2" style="clip-path:url(#SVGID_00000041272181149627773730000000405873342311292814_);fill:#DA243B;" width="0.2" height="16"/>
			
				<rect x="15.2" y="16.2" style="clip-path:url(#SVGID_00000041272181149627773730000000405873342311292814_);fill:#D8243B;" width="0.2" height="16"/>
			
				<rect x="15.3" y="16.2" style="clip-path:url(#SVGID_00000041272181149627773730000000405873342311292814_);fill:#D7243B;" width="0.2" height="16"/>
			
				<rect x="15.5" y="16.2" style="clip-path:url(#SVGID_00000041272181149627773730000000405873342311292814_);fill:#D6243A;" width="0.2" height="16"/>
			
				<rect x="15.7" y="16.2" style="clip-path:url(#SVGID_00000041272181149627773730000000405873342311292814_);fill:#D5243A;" width="0.2" height="16"/>
			
				<rect x="15.8" y="16.2" style="clip-path:url(#SVGID_00000041272181149627773730000000405873342311292814_);fill:#D32439;" width="0.2" height="16"/>
			
				<rect x="16" y="16.2" style="clip-path:url(#SVGID_00000041272181149627773730000000405873342311292814_);fill:#D22339;" width="0.2" height="16"/>
			
				<rect x="16.2" y="16.2" style="clip-path:url(#SVGID_00000041272181149627773730000000405873342311292814_);fill:#D12339;" width="0.2" height="16"/>
			
				<rect x="16.3" y="16.2" style="clip-path:url(#SVGID_00000041272181149627773730000000405873342311292814_);fill:#D02338;" width="0.2" height="16"/>
			
				<rect x="16.5" y="16.2" style="clip-path:url(#SVGID_00000041272181149627773730000000405873342311292814_);fill:#CF2338;" width="0.2" height="16"/>
			
				<rect x="16.6" y="16.2" style="clip-path:url(#SVGID_00000041272181149627773730000000405873342311292814_);fill:#CE2337;" width="0.2" height="16"/>
			
				<rect x="16.8" y="16.2" style="clip-path:url(#SVGID_00000041272181149627773730000000405873342311292814_);fill:#CD2337;" width="0.2" height="16"/>
			
				<rect x="17" y="16.2" style="clip-path:url(#SVGID_00000041272181149627773730000000405873342311292814_);fill:#CB2336;" width="0.2" height="16"/>
			
				<rect x="17.1" y="16.2" style="clip-path:url(#SVGID_00000041272181149627773730000000405873342311292814_);fill:#CA2336;" width="0.2" height="16"/>
			
				<rect x="17.3" y="16.2" style="clip-path:url(#SVGID_00000041272181149627773730000000405873342311292814_);fill:#C92236;" width="0.2" height="16"/>
			
				<rect x="17.4" y="16.2" style="clip-path:url(#SVGID_00000041272181149627773730000000405873342311292814_);fill:#C82235;" width="0.2" height="16"/>
			
				<rect x="17.6" y="16.2" style="clip-path:url(#SVGID_00000041272181149627773730000000405873342311292814_);fill:#C72235;" width="0.2" height="16"/>
			
				<rect x="17.8" y="16.2" style="clip-path:url(#SVGID_00000041272181149627773730000000405873342311292814_);fill:#C62234;" width="0.2" height="16"/>
			
				<rect x="17.9" y="16.2" style="clip-path:url(#SVGID_00000041272181149627773730000000405873342311292814_);fill:#C42234;" width="0.2" height="16"/>
			
				<rect x="18.1" y="16.2" style="clip-path:url(#SVGID_00000041272181149627773730000000405873342311292814_);fill:#C32234;" width="0.2" height="16"/>
			
				<rect x="18.2" y="16.2" style="clip-path:url(#SVGID_00000041272181149627773730000000405873342311292814_);fill:#C22233;" width="0.2" height="16"/>
			
				<rect x="18.4" y="16.2" style="clip-path:url(#SVGID_00000041272181149627773730000000405873342311292814_);fill:#C12233;" width="0.2" height="16"/>
			
				<rect x="18.6" y="16.2" style="clip-path:url(#SVGID_00000041272181149627773730000000405873342311292814_);fill:#C02232;" width="0.2" height="16"/>
			
				<rect x="18.7" y="16.2" style="clip-path:url(#SVGID_00000041272181149627773730000000405873342311292814_);fill:#BF2132;" width="0.2" height="16"/>
			
				<rect x="18.9" y="16.2" style="clip-path:url(#SVGID_00000041272181149627773730000000405873342311292814_);fill:#BE2132;" width="0.2" height="16"/>
			
				<rect x="19" y="16.2" style="clip-path:url(#SVGID_00000041272181149627773730000000405873342311292814_);fill:#BC2131;" width="0.2" height="16"/>
			
				<rect x="19.2" y="16.2" style="clip-path:url(#SVGID_00000041272181149627773730000000405873342311292814_);fill:#BB2131;" width="0.2" height="16"/>
			
				<rect x="19.4" y="16.2" style="clip-path:url(#SVGID_00000041272181149627773730000000405873342311292814_);fill:#BA2130;" width="0.2" height="16"/>
			
				<rect x="19.5" y="16.2" style="clip-path:url(#SVGID_00000041272181149627773730000000405873342311292814_);fill:#B92130;" width="0.2" height="16"/>
			
				<rect x="19.7" y="16.2" style="clip-path:url(#SVGID_00000041272181149627773730000000405873342311292814_);fill:#B82130;" width="0.2" height="16"/>
			
				<rect x="19.9" y="16.2" style="clip-path:url(#SVGID_00000041272181149627773730000000405873342311292814_);fill:#B7212F;" width="0.2" height="16"/>
			
				<rect x="20" y="16.2" style="clip-path:url(#SVGID_00000041272181149627773730000000405873342311292814_);fill:#B6212F;" width="0.2" height="16"/>
			
				<rect x="20.2" y="16.2" style="clip-path:url(#SVGID_00000041272181149627773730000000405873342311292814_);fill:#B5202E;" width="0.2" height="16"/>
			
				<rect x="20.3" y="16.2" style="clip-path:url(#SVGID_00000041272181149627773730000000405873342311292814_);fill:#B4202E;" width="0.2" height="16"/>
			
				<rect x="20.5" y="16.2" style="clip-path:url(#SVGID_00000041272181149627773730000000405873342311292814_);fill:#B3202E;" width="0.2" height="16"/>
			
				<rect x="20.7" y="16.2" style="clip-path:url(#SVGID_00000041272181149627773730000000405873342311292814_);fill:#B2202D;" width="0.2" height="16"/>
			
				<rect x="20.8" y="16.2" style="clip-path:url(#SVGID_00000041272181149627773730000000405873342311292814_);fill:#B0202D;" width="0.2" height="16"/>
			
				<rect x="21" y="16.2" style="clip-path:url(#SVGID_00000041272181149627773730000000405873342311292814_);fill:#AF202C;" width="0.2" height="16"/>
			
				<rect x="21.1" y="16.2" style="clip-path:url(#SVGID_00000041272181149627773730000000405873342311292814_);fill:#AE202C;" width="0.2" height="16"/>
			
				<rect x="21.3" y="16.2" style="clip-path:url(#SVGID_00000041272181149627773730000000405873342311292814_);fill:#AD1F2C;" width="0.2" height="16"/>
			
				<rect x="21.5" y="16.2" style="clip-path:url(#SVGID_00000041272181149627773730000000405873342311292814_);fill:#AC1F2B;" width="0.2" height="16"/>
			
				<rect x="21.6" y="16.2" style="clip-path:url(#SVGID_00000041272181149627773730000000405873342311292814_);fill:#AB1F2B;" width="0.2" height="16"/>
			
				<rect x="21.8" y="16.2" style="clip-path:url(#SVGID_00000041272181149627773730000000405873342311292814_);fill:#AA1F2B;" width="0.2" height="16"/>
			
				<rect x="21.9" y="16.2" style="clip-path:url(#SVGID_00000041272181149627773730000000405873342311292814_);fill:#A91F2A;" width="0.2" height="16"/>
			
				<rect x="22.1" y="16.2" style="clip-path:url(#SVGID_00000041272181149627773730000000405873342311292814_);fill:#A81F2A;" width="0.2" height="16"/>
			
				<rect x="22.3" y="16.2" style="clip-path:url(#SVGID_00000041272181149627773730000000405873342311292814_);fill:#A71E29;" width="0.2" height="16"/>
			
				<rect x="22.4" y="16.2" style="clip-path:url(#SVGID_00000041272181149627773730000000405873342311292814_);fill:#A61E29;" width="0.2" height="16"/>
			
				<rect x="22.6" y="16.2" style="clip-path:url(#SVGID_00000041272181149627773730000000405873342311292814_);fill:#A51E29;" width="0.2" height="16"/>
			
				<rect x="22.7" y="16.2" style="clip-path:url(#SVGID_00000041272181149627773730000000405873342311292814_);fill:#A41E28;" width="0.2" height="16"/>
			
				<rect x="22.9" y="16.2" style="clip-path:url(#SVGID_00000041272181149627773730000000405873342311292814_);fill:#A31E28;" width="0.2" height="16"/>
			
				<rect x="23.1" y="16.2" style="clip-path:url(#SVGID_00000041272181149627773730000000405873342311292814_);fill:#A21E27;" width="0.2" height="16"/>
			
				<rect x="23.2" y="16.2" style="clip-path:url(#SVGID_00000041272181149627773730000000405873342311292814_);fill:#A11D27;" width="0.2" height="16"/>
			
				<rect x="23.4" y="16.2" style="clip-path:url(#SVGID_00000041272181149627773730000000405873342311292814_);fill:#A01D27;" width="0.2" height="16"/>
			
				<rect x="23.5" y="16.2" style="clip-path:url(#SVGID_00000041272181149627773730000000405873342311292814_);fill:#9F1D26;" width="0.2" height="16"/>
			
				<rect x="23.7" y="16.2" style="clip-path:url(#SVGID_00000041272181149627773730000000405873342311292814_);fill:#9D1D26;" width="0.2" height="16"/>
			
				<rect x="23.9" y="16.2" style="clip-path:url(#SVGID_00000041272181149627773730000000405873342311292814_);fill:#9C1D26;" width="0.2" height="16"/>
			
				<rect x="24" y="16.2" style="clip-path:url(#SVGID_00000041272181149627773730000000405873342311292814_);fill:#9B1D25;" width="0.2" height="16"/>
			
				<rect x="24.2" y="16.2" style="clip-path:url(#SVGID_00000041272181149627773730000000405873342311292814_);fill:#9A1D25;" width="0.2" height="16"/>
			
				<rect x="24.4" y="16.2" style="clip-path:url(#SVGID_00000041272181149627773730000000405873342311292814_);fill:#991C24;" width="0.2" height="16"/>
			
				<rect x="24.5" y="16.2" style="clip-path:url(#SVGID_00000041272181149627773730000000405873342311292814_);fill:#981C24;" width="0.2" height="16"/>
			
				<rect x="24.7" y="16.2" style="clip-path:url(#SVGID_00000041272181149627773730000000405873342311292814_);fill:#971C24;" width="0.2" height="16"/>
			
				<rect x="24.8" y="16.2" style="clip-path:url(#SVGID_00000041272181149627773730000000405873342311292814_);fill:#961C23;" width="0.2" height="16"/>
			
				<rect x="25" y="16.2" style="clip-path:url(#SVGID_00000041272181149627773730000000405873342311292814_);fill:#951C23;" width="0.2" height="16"/>
			
				<rect x="25.2" y="16.2" style="clip-path:url(#SVGID_00000041272181149627773730000000405873342311292814_);fill:#941C22;" width="0.2" height="16"/>
			
				<rect x="25.3" y="16.2" style="clip-path:url(#SVGID_00000041272181149627773730000000405873342311292814_);fill:#931B22;" width="0.2" height="16"/>
			
				<rect x="25.5" y="16.2" style="clip-path:url(#SVGID_00000041272181149627773730000000405873342311292814_);fill:#921B22;" width="0.2" height="16"/>
			
				<rect x="25.6" y="16.2" style="clip-path:url(#SVGID_00000041272181149627773730000000405873342311292814_);fill:#911B21;" width="0.2" height="16"/>
			
				<rect x="25.8" y="16.2" style="clip-path:url(#SVGID_00000041272181149627773730000000405873342311292814_);fill:#901B21;" width="0.2" height="16"/>
			
				<rect x="26" y="16.2" style="clip-path:url(#SVGID_00000041272181149627773730000000405873342311292814_);fill:#8F1B20;" width="0.2" height="16"/>
			
				<rect x="26.1" y="16.2" style="clip-path:url(#SVGID_00000041272181149627773730000000405873342311292814_);fill:#8E1B20;" width="0.2" height="16"/>
			
				<rect x="26.3" y="16.2" style="clip-path:url(#SVGID_00000041272181149627773730000000405873342311292814_);fill:#8D1A20;" width="0.2" height="16"/>
			
				<rect x="26.4" y="16.2" style="clip-path:url(#SVGID_00000041272181149627773730000000405873342311292814_);fill:#8C1A1F;" width="0.2" height="16"/>
			
				<rect x="26.6" y="16.2" style="clip-path:url(#SVGID_00000041272181149627773730000000405873342311292814_);fill:#8B1A1F;" width="0.2" height="16"/>
			
				<rect x="26.8" y="16.2" style="clip-path:url(#SVGID_00000041272181149627773730000000405873342311292814_);fill:#8A1A1E;" width="0.2" height="16"/>
			
				<rect x="26.9" y="16.2" style="clip-path:url(#SVGID_00000041272181149627773730000000405873342311292814_);fill:#891A1E;" width="0.2" height="16"/>
			
				<rect x="27.1" y="16.2" style="clip-path:url(#SVGID_00000041272181149627773730000000405873342311292814_);fill:#88191E;" width="0.2" height="16"/>
			
				<rect x="27.2" y="16.2" style="clip-path:url(#SVGID_00000041272181149627773730000000405873342311292814_);fill:#87191D;" width="0.2" height="16"/>
			
				<rect x="27.4" y="16.2" style="clip-path:url(#SVGID_00000041272181149627773730000000405873342311292814_);fill:#86191D;" width="0.2" height="16"/>
			
				<rect x="27.6" y="16.2" style="clip-path:url(#SVGID_00000041272181149627773730000000405873342311292814_);fill:#86191D;" width="0.1" height="16"/>
		</g>
	</g>
</g>
</svg>
