
<svg width="144" height="116" viewBox="0 0 144 116" fill="none" xmlns="http://www.w3.org/2000/svg">
<path d="M68.1557 16.0303C57.0087 27.1774 19.4664 56.0992 31.5769 46.0071C35.5258 42.7163 39.7538 39.5027 43.4427 35.9256C51.5012 28.1113 61.5893 23.093 71.2783 17.5916C80.3536 12.4387 89.1304 6.67789 98.3556 1.80024C103.584 -0.964171 98.8862 4.21465 97.7757 5.54734C90.6084 14.1481 80.6299 22.0849 71.9474 29.0113C56.6206 41.2384 40.8166 52.7978 25.2425 64.698C18.389 69.9348 11.4155 75.1794 5.30254 81.2923C4.14686 82.448 1.81051 84.0386 1.06475 85.5301C0.596231 86.4672 2.79504 84.3484 3.65203 83.7458C7.30236 81.1792 11.0268 78.847 14.8933 76.6085C42.3475 60.7139 68.8023 44.568 94.6531 26.1118C99.7326 22.4852 104.88 19.0079 109.285 14.6028C111.717 12.1708 104.643 19.684 102.192 22.097C87.5337 36.528 72.8085 49.9994 56.6914 62.7353C44.4383 72.4178 7.45527 101.163 20.0679 91.9537C32.8811 82.5981 47.0501 75.0622 60.3046 66.3485C77.6777 54.9274 93.937 42.4415 109.731 28.8775C113.046 26.03 116.219 23.0449 119.634 20.3127C122.626 17.919 120.107 20.2772 118.965 21.3833C85.4515 53.8325 47.6508 81.5871 13.8673 113.723C9.48998 117.886 22.0977 109.599 22.8336 109.128C34.3648 101.748 46.4731 94.5861 57.2713 86.1546C74.2993 72.8588 90.4295 58.3194 109.017 47.1669C120.028 40.5602 131.559 34.921 142.83 28.7883C144.847 27.6909 141.689 30.8193 141.224 31.4648C140.434 32.5616 139.504 33.353 138.548 34.3197C125.186 47.8253 111.719 61.183 98.1325 74.4673C86.9525 85.3989 75.7232 96.3601 65.4792 108.191C64.5641 109.248 62.255 112.611 63.4272 111.849C71.8505 106.374 79.6133 99.9609 87.5157 93.7827C105.81 79.4795 123.993 64.3073 139.44 46.8993C139.824 46.4658 143.339 43.8991 142.652 44.7581C139.58 48.5974 137.184 52.9337 133.864 56.7131C131.481 59.4264 107.916 82.5625 109.24 84.5487C109.979 85.6574 119.752 77.5584 120.347 77.0545" stroke="#3C60B7" stroke-linecap="round"/>
</svg>